HIERARCHY
ROOT Hips
{
	OFFSET 0.000000 0.000000 0.000000
	CHANNELS 6 Xposition Yposition Zposition Zrotation Yrotation Xrotation 
	JOINT LHipJoint
	{
		OFFSET 0.000000 0.000000 0.000000
		CHANNELS 3 Zrotation Yrotation Xrotation
		JOINT LeftUpLeg
		{
			OFFSET 1.363060 -1.794630 0.839290
			CHANNELS 3 Zrotation Yrotation Xrotation
			JOINT LeftLeg
			{
				OFFSET 2.448110 -6.726130 0.000000
				CHANNELS 3 Zrotation Yrotation Xrotation
				JOINT LeftFoot
				{
					OFFSET 2.562200 -7.039590 0.000000
					CHANNELS 3 Zrotation Yrotation Xrotation
					JOINT LeftToeBase
					{
						OFFSET 0.157640 -0.433110 2.322550
						CHANNELS 3 Zrotation Yrotation Xrotation
						End Site
						{
							OFFSET 0.000000 0.000000 0.000000
						}
					}
				}
			}
		}
	}
	JOINT RHipJoint
	{
		OFFSET 0.000000 0.000000 0.000000
		CHANNELS 3 Zrotation Yrotation Xrotation
		JOINT RightUpLeg
		{
			OFFSET -1.305520 -1.794630 0.839290
			CHANNELS 3 Zrotation Yrotation Xrotation
			JOINT RightLeg
			{
				OFFSET -2.542530 -6.985550 0.000000
				CHANNELS 3 Zrotation Yrotation Xrotation
				JOINT RightFoot
				{
					OFFSET -2.568260 -7.056230 0.000000
					CHANNELS 3 Zrotation Yrotation Xrotation
					JOINT RightToeBase
					{
						OFFSET -0.164730 -0.452590 2.363150
						CHANNELS 3 Zrotation Yrotation Xrotation
						End Site
						{
							OFFSET 0.000000 0.000000 0.000000
						}
					}
				}
			}
		}
	}
	JOINT LowerBack
	{
		OFFSET 0.000000 0.000000 0.000000
		CHANNELS 3 Zrotation Yrotation Xrotation
		JOINT Spine
		{
			OFFSET 0.028270 2.035590 -0.193380
			CHANNELS 3 Zrotation Yrotation Xrotation
			JOINT Spine1
			{
				OFFSET 0.056720 2.048850 -0.042750
				CHANNELS 3 Zrotation Yrotation Xrotation
				JOINT Neck
				{
					OFFSET 0.000000 0.000000 0.000000
					CHANNELS 3 Zrotation Yrotation Xrotation
					JOINT Neck1
					{
						OFFSET -0.054170 1.746240 0.172020
						CHANNELS 3 Zrotation Yrotation Xrotation
						JOINT Head
						{
							OFFSET 0.104070 1.761360 -0.123970
							CHANNELS 3 Zrotation Yrotation Xrotation
							End Site
							{
								OFFSET 0.000000 0.000000 0.000000
							}
						}
					}
				}
				JOINT LeftShoulder
				{
					OFFSET 0.000000 0.000000 0.000000
					CHANNELS 3 Zrotation Yrotation Xrotation
					JOINT LeftArm
					{
						OFFSET 3.362410 1.200890 -0.311210
						CHANNELS 3 Zrotation Yrotation Xrotation
						JOINT LeftForeArm
						{
							OFFSET 4.983000 -0.000000 -0.000000
							CHANNELS 3 Zrotation Yrotation Xrotation
							JOINT LeftHand
							{
								OFFSET 3.483560 -0.000000 -0.000000
								CHANNELS 3 Zrotation Yrotation Xrotation
								JOINT LeftFingerBase
								{
									OFFSET 0.000000 0.000000 0.000000
									CHANNELS 3 Zrotation Yrotation Xrotation
									JOINT LeftHandIndex1
									{
										OFFSET 0.715260 -0.000000 -0.000000
										CHANNELS 3 Zrotation Yrotation Xrotation
										End Site
										{
											OFFSET 0.000000 0.000000 0.000000
										}
									}
								}
								JOINT LThumb
								{
									OFFSET 0.000000 0.000000 0.000000
									CHANNELS 3 Zrotation Yrotation Xrotation
									End Site
									{
										OFFSET 0.000000 0.000000 0.000000
									}
								}
							}
						}
					}
				}
				JOINT RightShoulder
				{
					OFFSET 0.000000 0.000000 0.000000
					CHANNELS 3 Zrotation Yrotation Xrotation
					JOINT RightArm
					{
						OFFSET -3.136600 1.374050 -0.404650
						CHANNELS 3 Zrotation Yrotation Xrotation
						JOINT RightForeArm
						{
							OFFSET -5.241900 -0.000000 -0.000000
							CHANNELS 3 Zrotation Yrotation Xrotation
							JOINT RightHand
							{
								OFFSET -3.444170 -0.000000 -0.000000
								CHANNELS 3 Zrotation Yrotation Xrotation
								JOINT RightFingerBase
								{
									OFFSET 0.000000 0.000000 0.000000
									CHANNELS 3 Zrotation Yrotation Xrotation
									JOINT RightHandIndex1
									{
										OFFSET -0.622530 -0.000000 -0.000000
										CHANNELS 3 Zrotation Yrotation Xrotation
										End Site
										{
											OFFSET 0.000000 0.000000 0.000000
										}
									}
								}
								JOINT RThumb
								{
									OFFSET 0.000000 0.000000 0.000000
									CHANNELS 3 Zrotation Yrotation Xrotation
									End Site
									{
										OFFSET 0.000000 0.000000 0.000000
									}
								}
							}
						}
					}
				}
			}
		}
	}
}
MOTION
Frames: 11
Frame Time: 0.008333
26.670162 17.592703 0.583054 124.074868 -88.861209 -118.799407 4.912099 1.859198 -0.914415 -23.954923 -6.186824 -9.771646 1.206165 9.892466 29.572692 1.575115 0.995032 1.109863 0.003000 0.351900 0.966800 -9.855287 -4.019958 -1.635707 28.664196 7.250761 -13.613282 -2.331152 -10.934966 32.236149 0.158821 -4.669606 -12.951948 -0.258700 3.272600 -9.038700 -2.224640 1.793441 1.342844 -0.045172 1.997798 -4.822211 -0.723962 0.894282 -9.014845 -7.447239 -4.056027 -10.153148 6.898130 -5.486293 8.990671 3.951400 -2.784400 4.288400 3.432068 -12.498685 1.809007 -99.498517 7.633539 -14.800374 22.997849 -32.979748 -8.021478 -2.092416 3.896194 39.147510 -24.444595 26.709838 -9.147600 -7.125000 0.000000 0.000000 -47.933600 49.622100 -6.901200 -4.703442 11.716511 2.317945 97.982906 -1.939314 -14.129981 -16.562855 30.368712 -5.457480 -1.236798 2.329181 1.813529 5.234040 43.985968 4.401800 7.125000 0.000000 0.000000 21.209100 9.365600 26.078700 
26.657415 17.620304 0.591921 114.826119 -89.137868 -109.827350 5.104268 1.909042 -0.932550 -24.326008 -5.458440 -11.103101 1.384495 10.300870 30.627105 0.460868 3.498080 1.040686 0.527400 -4.653700 -12.923600 -9.691635 -3.975395 -1.713811 28.724952 6.700420 -12.708452 -2.145203 -10.521610 31.118424 0.247519 -4.908752 -12.625255 -0.228900 3.079700 -8.500700 -1.824611 1.714477 1.685100 -0.054240 1.884534 -4.807136 -0.888300 0.826859 -9.026921 -7.651635 -4.093333 -10.340773 7.035401 -5.526678 9.105545 4.069900 -2.807000 4.409000 3.421861 -12.512400 1.824785 -99.467720 7.718435 -13.121912 22.644720 -32.986966 -8.077973 -1.635761 4.159850 34.835920 -17.991005 32.170405 -7.277300 -7.125000 0.000000 0.000000 -46.782800 54.064900 -12.513000 -4.740104 11.716624 2.301534 97.965390 -1.944651 -14.406991 -16.383780 30.172342 -5.395671 -1.231023 2.337447 1.872781 5.166757 43.849915 4.342400 7.125000 0.000000 0.000000 21.174200 9.236300 25.990300 
26.643781 17.661650 0.597685 109.554699 -89.305477 -104.792849 5.200348 1.964280 -0.926565 -24.498311 -4.922901 -11.749378 1.459931 10.469839 31.041148 -0.154982 4.870892 1.154328 1.316400 -7.267000 -20.508700 -9.607224 -3.935792 -1.774892 28.817165 6.406901 -12.051424 -2.048053 -10.290841 30.532583 0.309439 -5.112960 -12.546508 -0.229100 3.080900 -8.503900 -1.495887 1.665890 2.001028 -0.059195 1.817679 -4.801049 -1.017508 0.788424 -9.092826 -7.962444 -4.092714 -10.421137 7.286526 -5.517919 9.166923 4.267400 -2.807900 4.487200 3.396916 -12.540138 1.847167 -99.457200 7.857152 -11.410311 22.415446 -33.104099 -8.190437 -1.077534 4.307630 30.182941 -9.162810 36.746202 -3.329800 -7.125000 0.000000 0.000000 -42.973500 58.432700 -15.984600 -4.772475 11.724483 2.288815 97.938267 -2.109520 -14.665112 -16.192574 29.976184 -5.329759 -1.206260 2.361013 2.177019 5.215952 43.735123 4.356000 7.125000 0.000000 0.000000 21.190400 9.110100 25.974600 
26.633805 17.652561 0.599570 110.500072 -89.332136 -105.981018 5.188069 1.961805 -0.905832 -24.385213 -5.115184 -11.418841 1.534168 10.541295 31.363948 0.119014 4.258066 0.904062 1.005500 -6.380500 -17.892600 -9.632526 -3.959546 -1.820386 28.932592 6.311081 -11.422627 -1.955064 -10.087492 29.995456 0.376627 -5.328440 -12.436703 -0.238000 3.140000 -8.668700 -1.330315 1.670395 2.275640 -0.073131 1.839210 -4.791184 -1.157210 0.784357 -9.159617 -8.157859 -4.111013 -10.453845 7.480491 -5.549593 9.266144 4.408900 -2.828900 4.568600 3.367395 -12.571729 1.868007 -99.363868 7.979553 -9.675429 22.193594 -33.202985 -8.294475 -0.435872 4.341913 25.367059 1.495541 39.942832 2.296900 -7.125000 0.000000 0.000000 -36.095400 62.552400 -16.514800 -4.808715 11.729022 2.274379 97.988235 -2.282820 -15.089761 -15.951607 29.731452 -5.259557 -1.171029 2.408831 2.633734 5.266014 43.841874 4.386000 7.125000 0.000000 0.000000 21.208200 9.171900 26.018600 
26.616623 17.649568 0.597796 117.888645 -89.166202 -113.688745 5.053826 1.903793 -0.909912 -24.376749 -4.807212 -11.135310 1.584914 10.569848 31.548878 0.148617 4.185653 0.737881 1.006600 -6.383900 -17.902500 -9.776222 -4.046466 -1.857835 29.041172 6.309876 -10.735043 -1.894400 -9.932199 29.617864 0.406750 -5.411739 -12.347992 -0.238900 3.145900 -8.685100 -1.389095 1.724421 2.504432 -0.085562 1.945485 -4.752778 -1.213865 0.823899 -9.110676 -8.298773 -4.131314 -10.570261 7.617677 -5.587491 9.438034 4.505700 -2.851300 4.689400 3.341564 -12.597782 1.883412 -99.280858 8.021846 -7.940555 22.032290 -33.311588 -8.368348 0.191255 4.301062 20.534695 12.386735 41.065908 8.381400 -7.125000 0.000000 0.000000 -26.208000 65.628200 -13.468700 -4.835299 11.713684 2.265606 97.993323 -2.430309 -15.407897 -15.736198 29.514780 -5.203752 -1.152277 2.445261 2.928717 5.228869 43.974801 4.367600 7.125000 0.000000 0.000000 21.190100 9.271000 26.023300 
26.599331 17.645799 0.603671 122.881086 -89.048616 -119.312423 4.943990 1.909576 -0.889644 -24.487917 -4.565586 -10.451694 1.586123 10.523690 31.499351 -0.155338 4.838487 0.502448 1.228600 -7.029700 -19.803500 -9.872975 -4.103373 -1.945443 29.125297 5.983414 -9.904093 -1.900679 -9.847042 29.539211 0.374189 -5.275706 -12.314751 -0.243200 3.173700 -8.762800 -1.291078 1.762030 3.047598 -0.099779 2.039211 -4.684977 -1.349298 0.856463 -9.087422 -8.463114 -4.134736 -10.610529 7.753504 -5.593849 9.513343 4.617600 -2.859300 4.749000 3.293541 -12.623083 1.925308 -99.264354 8.170224 -4.747557 21.945868 -33.687079 -8.582537 1.077500 4.255674 11.186716 29.456504 40.282652 18.032600 -7.125000 0.000000 0.000000 -5.625100 69.001300 -3.239500 -4.847315 11.704555 2.263282 97.959862 -2.632299 -15.541473 -15.590247 29.376838 -5.155030 -1.137207 2.458117 3.108949 5.262700 43.852144 4.374100 7.125000 0.000000 0.000000 21.201300 9.145400 26.000700 
26.582815 17.648016 0.605556 127.473563 -88.906131 -123.869200 4.853986 1.883900 -0.888141 -24.536698 -4.602974 -10.400954 1.570387 10.517312 31.445346 -0.364003 5.295801 0.309537 1.334200 -7.314000 -20.649000 -9.967342 -4.132775 -1.955969 29.159236 6.007830 -9.824063 -1.886182 -9.806000 29.431904 0.363293 -5.217549 -12.241382 -0.253100 3.237100 -8.939700 -1.265116 1.829559 2.892570 -0.123037 2.140919 -4.675588 -1.443701 0.893892 -9.011000 -8.669550 -4.140677 -10.568794 7.916278 -5.604770 9.535639 4.749800 -2.870100 4.762100 3.296797 -12.645199 1.905591 -99.163925 7.947440 -5.667905 21.690891 -33.279474 -8.375181 1.009215 4.201760 13.010381 27.077513 39.100606 16.123800 -7.125000 0.000000 0.000000 -7.704900 67.239300 -4.134000 -4.886843 11.696972 2.266791 97.998433 -2.859248 -15.782656 -15.424503 29.213909 -5.088370 -1.113758 2.470282 3.437592 5.211740 43.625794 4.314100 7.125000 0.000000 0.000000 21.170300 8.931700 25.891900 
26.568848 17.649789 0.607329 128.253866 -88.828366 -124.573689 4.843760 1.878283 -0.886372 -24.599786 -4.647406 -10.382933 1.561597 10.509482 31.412774 -0.391014 5.353871 0.226586 1.326000 -7.292300 -20.584400 -9.975735 -4.138313 -1.954645 29.104293 5.992453 -9.833535 -1.874829 -9.777983 29.345726 0.353225 -5.170438 -12.203015 -0.253900 3.241900 -8.953000 -1.241081 1.883836 2.762797 -0.146720 2.210707 -4.685783 -1.518814 0.922004 -8.995767 -8.897204 -4.145005 -10.609152 8.097013 -5.613733 9.628357 4.891000 -2.880800 4.833400 3.285966 -12.668943 1.894485 -99.060786 7.795895 -5.999321 21.632006 -33.136422 -8.300940 0.947970 4.179968 13.863477 25.739444 38.723420 15.206500 -7.125000 0.000000 0.000000 -9.029300 66.555300 -4.707800 -4.930325 11.695843 2.257256 98.018551 -3.077078 -16.201464 -15.148789 28.925108 -5.004185 -1.095467 2.498982 3.846356 5.001215 43.569701 4.169300 7.125000 0.000000 0.000000 21.070400 8.874200 25.734600 
26.555325 17.652006 0.609214 128.847087 -88.794178 -125.122834 4.834161 1.876957 -0.883214 -24.622339 -4.656100 -10.342613 1.554869 10.498520 31.381030 -0.394233 5.359706 0.185262 1.337100 -7.321700 -20.672100 -9.981594 -4.141924 -1.954823 29.081442 5.972499 -9.829273 -1.872324 -9.767874 29.318650 0.337981 -5.117494 -12.222351 -0.250100 3.217700 -8.885500 -1.216852 1.949569 2.657173 -0.160294 2.293703 -4.693757 -1.556792 0.962914 -8.976638 -9.105368 -4.168537 -10.666595 8.244004 -5.648338 9.733390 5.008900 -2.904800 4.914400 3.264782 -12.687752 1.902509 -98.992876 7.742266 -5.438722 21.740415 -33.301760 -8.390953 0.991470 4.191759 12.810453 27.120908 39.081241 16.149500 -7.125000 0.000000 0.000000 -7.643700 67.246100 -4.102200 -4.964179 11.691563 2.240775 98.001040 -3.281154 -16.805248 -14.831860 28.564984 -4.915243 -1.061708 2.547164 4.249752 4.999434 43.649673 4.163200 7.125000 0.000000 0.000000 21.064200 8.912000 25.737500 
26.544462 17.653115 0.610433 130.894771 -88.797542 -127.148153 4.791620 1.871830 -0.878352 -24.545363 -4.589610 -10.334684 1.548269 10.485764 31.341504 -0.388502 5.348561 0.207818 1.363400 -7.390600 -20.877800 -10.024923 -4.149398 -1.957415 29.162622 6.023209 -9.792946 -1.870924 -9.770156 29.330215 0.339142 -5.136205 -12.286592 -0.248500 3.207600 -8.857400 -1.147247 2.006476 2.587149 -0.165644 2.369642 -4.693569 -1.576778 1.002506 -8.926460 -9.516585 -4.183491 -10.829077 8.561104 -5.664477 9.877176 5.253500 -2.920700 5.051300 3.231748 -12.714765 1.913069 -98.952162 7.682480 -4.812569 21.922193 -33.545070 -8.521569 1.047008 4.205136 11.599179 28.815590 39.542076 17.350500 -7.125000 0.000000 0.000000 -5.893100 68.136100 -3.279000 -5.005252 11.673019 2.222962 98.011205 -3.472559 -17.365553 -14.575899 28.272590 -4.846037 -1.030994 2.590442 4.623122 4.991379 43.753752 4.156600 7.125000 0.000000 0.000000 21.056300 8.976400 25.746000 
26.539807 17.653780 0.610544 130.279886 -88.836740 -126.483493 4.804374 1.872483 -0.881924 -24.515896 -4.492579 -10.409183 1.543671 10.474857 31.310813 -0.335775 5.234603 0.306722 1.383000 -7.441300 -21.029600 -10.011656 -4.145203 -1.948062 29.177192 6.074358 -9.828658 -1.870577 -9.784814 29.360023 0.353754 -5.206524 -12.355768 -0.245800 3.190600 -8.809800 -1.089880 2.006746 2.576328 -0.158111 2.366411 -4.699050 -1.584019 1.001537 -8.942739 -9.422096 -4.148244 -10.863341 8.474869 -5.608044 9.860172 5.192100 -2.889400 5.038100 3.244425 -12.718548 1.907575 -98.924329 7.548967 -4.819356 21.974635 -33.566424 -8.524665 1.031901 4.193342 11.825386 28.459565 39.269098 17.026800 -7.125000 0.000000 0.000000 -6.136000 67.779100 -3.364800 -5.008043 11.693014 2.219634 98.001982 -3.660141 -17.764444 -14.385137 28.039449 -4.784576 -1.006637 2.614588 4.927366 4.976794 43.692828 4.134500 7.125000 0.000000 0.000000 21.044300 8.903000 25.706800 
